<?xml version="1.0" standalone="no"?>
<!DOCTYPE svg PUBLIC "-//W3C//DTD SVG 20010904//EN"
 "http://www.w3.org/TR/2001/REC-SVG-20010904/DTD/svg10.dtd">
<svg version="1.0" xmlns="http://www.w3.org/2000/svg"
 width="1080.000000pt" height="1080.000000pt" viewBox="0 0 1080.000000 1080.000000"
 preserveAspectRatio="xMidYMid meet">

<g transform="translate(0.000000,1080.000000) scale(0.100000,-0.100000)"
fill="#000000" stroke="none">
<path d="M0 5400 l0 -5400 5400 0 5400 0 0 5400 0 5400 -5400 0 -5400 0 0
-5400z m5621 2032 c0 -11 2 -12 6 -4 2 6 9 10 14 6 5 -3 9 0 9 6 0 6 5 8 10 5
6 -3 10 -15 10 -26 0 -10 9 -24 19 -31 15 -9 17 -16 9 -34 -12 -25 -4 -59 12
-49 5 3 10 -1 10 -9 0 -12 9 -14 47 -9 44 5 47 4 34 -11 -17 -20 -23 -113 -9
-138 5 -12 5 -18 -2 -18 -5 0 -10 -9 -10 -20 0 -11 4 -20 9 -20 10 0 25 -57
21 -85 -6 -43 -5 -50 8 -47 6 1 12 -7 12 -17 0 -11 5 -23 10 -26 8 -5 8 -11 0
-20 -13 -15 -3 -45 15 -45 21 0 29 -21 14 -31 -12 -8 -12 -10 0 -18 9 -6 10
-11 2 -15 -6 -4 -11 -17 -11 -29 0 -20 0 -20 -15 -1 -14 18 -14 18 -15 0 0
-15 -3 -16 -15 -6 -17 14 -35 5 -35 -18 0 -11 -8 -18 -20 -18 -11 0 -20 5 -20
10 0 5 -9 1 -20 -9 -11 -10 -28 -15 -39 -12 -36 9 -46 -8 -45 -82 0 -58 5 -76
28 -111 l27 -41 987 3 c1070 3 1036 1 1030 56 -2 23 -16 33 -78 64 l-75 38 65
0 c81 0 108 7 115 30 6 20 -28 116 -74 208 -32 63 -57 121 -48 112 3 -3 44
-59 92 -125 119 -164 140 -185 186 -185 22 0 60 12 94 30 31 17 59 30 60 30 2
0 -7 -19 -20 -42 -27 -51 -39 -98 -25 -98 5 0 10 -6 10 -14 0 -18 47 -52 120
-88 l55 -27 -75 2 c-74 2 -75 2 -78 -25 -2 -14 7 -46 19 -70 30 -59 193 -302
369 -548 199 -279 612 -860 748 -1052 158 -224 275 -399 269 -404 -2 -2 -62
23 -133 57 -71 34 -248 115 -394 181 -146 66 -418 190 -605 275 -187 86 -379
173 -426 194 l-87 39 -2173 0 -2172 0 -361 -164 c-199 -90 -482 -219 -631
-286 -148 -67 -280 -128 -293 -136 -29 -19 -28 -41 8 -109 17 -31 30 -59 30
-61 0 -3 -27 18 -60 46 -82 68 -95 69 -183 27 -86 -42 -106 -59 -233 -202 -53
-60 -99 -112 -102 -115 -7 -7 -2 2 82 146 145 248 138 283 -52 284 l-87 1 93
34 c103 37 158 73 173 113 14 37 3 98 -27 149 -13 23 -24 45 -24 48 0 4 22
-13 50 -38 52 -47 106 -77 137 -77 31 0 103 54 164 122 89 101 310 402 677
926 24 34 138 194 253 355 l209 292 829 5 c818 5 830 5 853 25 45 40 63 50 36
19 -16 -17 -28 -33 -28 -37 0 -4 89 -7 199 -7 212 0 213 0 226 52 4 15 10 26
14 25 8 -3 47 36 59 60 6 10 15 59 21 108 6 50 15 106 21 125 20 68 9 120 -36
180 -6 8 -15 32 -18 53 -7 38 -8 38 -27 21 -19 -17 -19 -16 -8 14 6 18 15 32
19 32 11 0 4 64 -10 91 -11 20 -10 25 10 41 13 10 38 18 61 18 26 0 42 5 45
15 4 8 15 15 25 15 16 0 19 8 19 50 0 28 5 50 10 50 6 0 10 12 10 26 0 27 19
24 21 -4z m-196 -252 c-3 -5 -11 -10 -16 -10 -6 0 -7 5 -4 10 3 6 11 10 16 10
6 0 7 -4 4 -10z m485 -340 c0 -5 -4 -10 -10 -10 -5 0 -10 5 -10 10 0 6 5 10
10 10 6 0 10 -4 10 -10z m-707 -1931 c21 -43 23 -51 9 -56 -22 -9 -63 18 -85
56 -17 27 -18 34 -6 42 34 21 56 10 82 -42z m-327 -106 c-31 -62 -71 -113 -80
-102 -4 5 103 169 110 169 2 0 -11 -30 -30 -67z m102 -1 c7 -5 18 -28 25 -52
15 -51 38 -70 61 -51 9 8 16 27 16 44 0 32 24 67 47 67 18 0 17 -26 -2 -34 -9
-3 -15 -18 -15 -34 0 -41 -35 -82 -69 -82 -34 0 -59 26 -67 71 -4 19 -13 39
-21 46 -8 6 -12 16 -8 22 7 13 16 14 33 3z m388 -17 c15 -20 19 -106 7 -119
-4 -4 -14 2 -23 13 -9 12 -29 20 -50 21 -58 3 -70 1 -70 -15 0 -8 -4 -15 -10
-15 -18 0 -12 102 7 123 24 25 119 20 139 -8z m254 12 c14 -7 26 -23 28 -35 6
-40 -15 -52 -84 -52 -60 0 -65 -2 -74 -25 -21 -55 -46 -11 -35 62 5 32 12 46
28 53 33 13 109 11 137 -3z m273 -2 c-2 -5 -32 -12 -68 -15 -67 -5 -93 -23
-40 -28 107 -9 132 -32 36 -32 -58 0 -84 -11 -60 -26 6 -3 40 -9 75 -12 80 -6
74 -22 -9 -22 -84 0 -107 16 -107 75 0 61 24 77 110 73 37 -2 64 -7 63 -13z
m215 9 c27 -8 29 -24 3 -24 -34 0 -32 -17 4 -39 38 -22 44 -41 19 -65 -18 -18
-129 -23 -139 -6 -3 6 3 10 13 10 11 0 25 7 32 15 10 12 5 17 -24 29 -28 12
-36 21 -36 41 0 37 62 56 128 39z m-1268 -104 c0 -5 -5 -10 -11 -10 -5 0 -7 5
-4 10 3 6 8 10 11 10 2 0 4 -4 4 -10z m-77 -123 c-9 -32 -18 -56 -20 -53 -2 2
3 29 12 61 9 31 19 55 21 53 2 -3 -4 -30 -13 -61z m522 -43 c13 -21 16 -38 10
-79 -5 -46 -3 -56 18 -81 13 -16 27 -46 31 -66 4 -21 20 -63 37 -95 30 -58 30
-58 5 -34 -14 14 -26 29 -26 35 0 20 -51 121 -73 144 -17 19 -21 33 -19 79 2
37 -3 64 -13 79 -8 13 -15 28 -15 34 0 20 28 10 45 -16z m-535 -137 c0 -5 -4
-5 -10 -2 -5 3 -10 14 -10 23 0 15 2 15 10 2 5 -8 10 -19 10 -23z m-140 -267
c0 -13 -5 -18 -15 -14 -12 5 -13 10 -4 20 15 19 19 18 19 -6z m829 -86 c-11
-13 -6 -21 34 -56 26 -22 47 -45 47 -51 0 -6 -18 8 -40 31 -23 23 -45 42 -50
42 -14 0 -12 24 2 38 17 17 23 15 7 -4z"/>
<path d="M5442 7258 c-21 -21 -15 -38 11 -29 23 9 30 32 12 38 -6 2 -16 -2
-23 -9z"/>
<path d="M5574 6546 c-3 -14 -10 -23 -15 -20 -17 10 -9 -39 9 -52 9 -7 39 -14
66 -14 l50 0 -28 29 c-16 17 -34 40 -40 52 -16 32 -34 34 -42 5z"/>
<path d="M4213 6352 c-6 -4 -15 -20 -18 -35 -9 -33 -21 -36 -149 -40 l-99 -2
-31 -60 c-31 -59 -146 -241 -345 -545 -56 -85 -97 -156 -92 -158 5 -2 121 49
257 113 135 64 249 113 252 111 2 -3 -39 -82 -92 -176 l-97 -170 -61 0 -60 0
16 25 c36 55 88 156 83 162 -6 5 -39 -8 -231 -98 -108 -50 -126 -62 -163 -110
-24 -30 -68 -82 -98 -115 -30 -34 -55 -64 -55 -66 0 -6 134 15 235 36 38 8 71
14 72 12 1 -1 -9 -19 -24 -41 l-26 -38 59 6 c32 4 91 12 131 18 71 11 72 12
80 48 l9 36 152 16 c84 9 159 20 167 23 8 3 15 15 15 26 0 28 33 103 190 433
72 153 130 280 128 282 -2 3 -36 -10 -74 -28 -155 -74 -375 -169 -380 -165 -2
3 33 70 79 149 l83 144 52 3 52 3 -40 -73 c-22 -40 -40 -76 -40 -80 0 -9 127
45 237 101 71 35 87 48 117 95 19 30 39 57 45 60 29 19 2 26 -94 26 -69 0
-105 4 -105 11 0 6 9 24 21 40 l20 29 -83 0 c-46 0 -88 -4 -95 -8z"/>
<path d="M4866 6325 l-7 -35 -119 0 -120 0 0 -25 c0 -34 -31 -111 -153 -386
-116 -262 -123 -279 -108 -279 5 0 112 43 236 96 125 53 228 94 229 92 3 -4
-91 -309 -98 -315 -2 -2 -31 -3 -63 -1 l-60 3 27 88 c15 48 23 87 17 87 -5 0
-85 -32 -177 -71 l-167 -70 -25 -52 c-14 -29 -42 -74 -63 -101 l-37 -49 88 7
c49 3 125 9 168 13 l79 6 -28 -37 -27 -36 44 0 c25 0 86 3 136 6 l92 7 0 28
c0 15 6 31 13 36 6 4 80 10 162 13 l150 5 -3 50 c-3 45 51 332 107 578 14 59
16 77 6 77 -7 0 -64 -23 -126 -51 -158 -70 -240 -105 -266 -113 -22 -7 -21 -1
25 131 l47 138 48 3 c56 4 58 -3 28 -91 -11 -32 -16 -57 -12 -57 14 0 235 102
264 122 15 11 27 25 27 32 0 7 11 34 24 59 12 26 21 49 18 52 -3 3 -51 5 -107
5 -56 0 -105 3 -108 7 -4 3 -1 16 7 29 8 12 12 24 9 28 -4 3 -43 6 -89 6 l-82
0 -6 -35z"/>
<path d="M5308 6236 c4 -55 -108 -759 -129 -814 -6 -15 -17 -34 -25 -43 -13
-14 10 -16 258 -22 389 -10 608 -9 608 3 0 5 -9 26 -19 47 -16 30 -23 83 -36
243 -9 113 -20 208 -23 211 -4 4 -69 -21 -144 -55 l-138 -61 0 -127 0 -128
-69 0 -69 0 4 43 c2 23 6 81 10 128 l6 86 75 33 c41 18 81 39 89 47 9 9 14 35
14 69 0 66 -9 68 -101 24 -35 -16 -64 -28 -66 -26 -2 1 0 64 4 139 l6 137 55
0 55 0 -6 -90 c-4 -49 -5 -90 -2 -90 3 0 61 28 130 62 l125 63 0 55 c0 30 4
70 9 88 l10 32 -317 0 -317 0 3 -54z"/>
<path d="M5997 6284 c-3 -4 0 -16 8 -28 13 -19 32 -144 85 -531 38 -287 40
-304 29 -332 -5 -14 -6 -30 -2 -34 4 -4 95 -11 201 -15 l192 -7 -25 45 c-28
49 -108 349 -103 385 3 19 15 9 77 -66 41 -49 80 -103 87 -119 21 -52 46 -182
41 -212 -5 -25 -3 -29 21 -34 27 -6 301 -26 356 -26 l30 0 -31 33 c-35 35 -53
79 -185 437 -110 299 -158 443 -158 476 l0 24 -145 0 -145 0 14 -22 c16 -26
65 -175 95 -288 l20 -75 -35 40 c-63 70 -122 159 -133 200 -6 22 -11 66 -11
98 l0 57 -138 0 c-76 0 -141 -3 -145 -6z"/>
<path d="M6693 6248 c31 -40 45 -71 204 -453 143 -345 176 -435 168 -468 -6
-23 -6 -23 212 -51 120 -15 315 -40 433 -55 118 -15 217 -26 219 -24 3 2 -5
13 -16 26 -30 32 -153 223 -282 440 -62 103 -117 187 -123 187 -12 0 -136 -72
-167 -98 l-24 -19 91 -172 91 -173 -62 7 c-34 4 -63 8 -63 9 -5 4 -364 727
-364 731 0 4 21 5 48 3 l47 -3 70 -132 c39 -73 74 -133 78 -133 11 0 104 62
145 97 l33 28 -51 85 c-28 47 -56 105 -64 130 l-13 45 -129 6 c-71 4 -214 10
-318 14 l-189 7 26 -34z"/>
<path d="M3450 6258 c-102 -4 -186 -12 -188 -17 -13 -39 -186 -298 -462 -691
-102 -146 -220 -314 -262 -375 -42 -60 -105 -148 -141 -195 -36 -47 -62 -86
-58 -88 9 -3 660 220 756 260 35 14 59 29 57 37 -4 18 29 73 198 326 80 121
150 225 153 232 10 16 -101 -33 -248 -111 -116 -61 -122 -65 -175 -141 -172
-241 -198 -269 -259 -281 l-34 -7 22 39 c12 21 64 97 114 169 l92 130 98 55
c53 30 113 68 133 84 34 27 119 145 110 153 -2 2 -45 -17 -95 -43 -50 -27 -92
-46 -95 -43 -2 2 53 83 123 179 l127 175 48 3 48 3 -66 -95 c-36 -52 -69 -102
-73 -111 -4 -11 50 11 156 65 169 86 187 99 292 228 l60 72 -123 -2 c-68 0
-206 -5 -308 -10z"/>
<path d="M7370 6247 c0 -8 7 -20 16 -28 50 -41 624 -965 624 -1005 0 -12 6
-26 13 -32 6 -5 93 -35 192 -66 99 -30 285 -89 412 -129 156 -50 229 -69 221
-58 -7 9 -29 36 -49 61 -20 25 -119 167 -220 315 -100 149 -194 286 -208 306
l-26 36 -78 -52 -77 -52 100 -152 c55 -84 100 -156 100 -160 0 -4 -23 -4 -51
2 l-51 10 -108 162 -109 163 46 38 45 39 -50 76 c-28 42 -55 80 -61 83 -5 4
-29 -7 -52 -23 -23 -17 -46 -28 -51 -25 -14 9 -218 320 -218 333 0 15 69 4 91
-15 8 -8 46 -59 85 -114 38 -55 71 -100 74 -100 3 0 34 29 69 64 l63 64 -42
62 c-23 34 -53 86 -66 115 l-25 53 -62 6 c-34 3 -152 10 -262 16 -110 6 -219
13 -242 16 -33 4 -43 2 -43 -9z"/>
<path d="M5240 4765 c-6 -8 -9 -19 -5 -25 9 -14 102 -13 111 2 19 30 -81 53
-106 23z"/>
<path d="M5494 4765 c-11 -26 10 -36 67 -33 46 3 54 6 54 23 0 17 -8 20 -58
23 -45 2 -59 0 -63 -13z"/>
<path d="M6015 4771 c-7 -12 12 -24 25 -16 11 7 4 25 -10 25 -5 0 -11 -4 -15
-9z"/>
<path d="M6085 4711 c-7 -12 12 -24 25 -16 11 7 4 25 -10 25 -5 0 -11 -4 -15
-9z"/>
</g>
</svg>
